# Blender v2.80 (sub 44) OBJ File: 'Rocks.blend'
# www.blender.org
mtllib BigRock3.mtl
o BigRock3_Cube.009
v -0.735206 -0.001457 1.117825
v -0.685138 0.693142 0.904539
v -1.031564 0.027028 -1.162336
v -0.996376 0.835037 -1.076171
v 0.804254 -0.000016 1.166245
v 0.798428 0.798752 0.753111
v 0.294100 -0.044189 -0.949978
v 0.157222 0.808850 -1.016341
v -1.143799 0.027028 -0.292248
v -0.633988 0.372276 1.034414
v -1.129507 0.863962 -0.266574
v -1.241954 0.284584 -1.327475
v -0.426753 0.001708 -1.189877
v -0.470974 0.978475 -1.104258
v 0.140867 0.533907 -1.179180
v 0.566063 -0.009358 -0.314566
v 0.948897 0.904175 -0.810315
v 1.098762 0.314501 1.008306
v 0.102255 -0.001457 1.526456
v 0.212762 0.838745 1.622967
v -0.426754 1.708857 -0.877876
v 0.102255 0.702682 1.685476
v 0.814459 0.236801 -0.428221
v -0.426753 0.627073 -1.419716
v -1.241954 0.082041 -0.292248
v -0.834191 0.027028 0.412788
v 0.749370 0.893009 0.190297
v -0.756901 0.780536 0.528179
v 0.772617 -0.015956 0.435519
v -0.502450 1.102388 0.569659
v 0.704474 0.304140 0.228925
v -0.919248 0.101814 0.380258
vt 0.233058 0.470891
vt 0.324352 0.496927
vt 0.293530 0.591947
vt 0.219218 0.598996
vt 0.661229 0.585972
vt 0.702201 0.564103
vt 0.723763 0.641433
vt 0.690791 0.654574
vt 0.866856 0.632886
vt 0.795989 0.634033
vt 0.810022 0.565339
vt 0.864084 0.533722
vt 0.388344 0.276989
vt 0.402779 0.290360
vt 0.351251 0.359050
vt 0.319804 0.333055
vt 0.180601 0.173812
vt 0.023769 0.150113
vt 0.096423 0.012057
vt 0.179393 0.104904
vt 0.000000 0.143211
vt 0.004200 0.095750
vt 0.784773 0.526031
vt 0.784773 0.720823
vt 0.314319 0.606202
vt 0.406192 0.606202
vt 0.991396 0.376038
vt 0.904818 0.376452
vt 0.957949 0.290968
vt 1.000000 0.276989
vt 1.000000 0.464854
vt 0.966780 0.502939
vt 0.219218 0.052299
vt 0.084804 0.000000
vt 0.905032 0.608675
vt 0.907382 0.519079
vt 0.907382 0.782765
vt 0.839882 0.809229
vt 0.868702 0.712344
vt 0.902825 0.702279
vt 0.718290 0.755107
vt 0.603141 0.629159
vt 0.646455 0.710667
vt 0.571073 0.565204
vt 0.580979 0.524469
vt 0.657587 0.519079
vt 0.919127 0.862298
vt 0.907382 0.860727
vt 0.922610 0.734530
vt 0.945471 0.758176
vt 0.945471 0.952769
vt 0.935749 0.947414
vt 0.262650 0.396658
vt 0.347048 0.405309
vt 0.279093 0.308904
vt 0.256157 0.391154
vt 0.387879 0.414745
vt 0.219218 0.287139
vt 0.044361 0.341257
vt 0.784773 0.754096
vn -0.9625 0.2678 -0.0442
vn 0.3318 0.5818 -0.7426
vn 0.9426 0.1415 -0.3025
vn -0.6583 0.3631 0.6593
vn 0.2103 0.9708 0.1155
vn -0.5830 0.6543 0.4816
vn 0.2086 0.2796 -0.9372
vn -0.6892 0.5550 -0.4659
vn -0.5577 -0.0059 0.8300
vn 0.4919 -0.1431 0.8588
vn 0.6737 0.4896 0.5535
vn 0.8644 -0.4439 -0.2361
vn 0.7513 -0.3255 -0.5740
vn 0.4998 -0.2714 -0.8225
vn 0.3035 -0.3056 -0.9025
vn 0.0135 -0.4056 -0.9139
vn -0.2717 0.5548 -0.7863
vn -0.6751 -0.7283 -0.1172
vn -0.5875 -0.7590 0.2806
vn -0.8954 0.1174 0.4294
vn -0.9455 0.0996 0.3099
vn -0.9620 0.1003 0.2541
vn 0.9431 -0.3288 -0.0505
vn -0.6608 0.6883 0.2993
vn 0.3744 0.8882 0.2662
vn 0.9796 -0.0777 0.1855
usemtl Material
s off
f 25/1/1 11/2/1 4/3/1 12/4/1
f 24/5/2 14/6/2 8/7/2 15/8/2
f 31/9/3 27/10/3 6/11/3 18/12/3
f 22/13/4 20/14/4 2/15/4 10/16/4
f 27/17/5 30/18/5 20/19/5 6/20/5
f 30/18/6 28/21/6 2/22/6 20/19/6
f 8/7/7 14/6/7 21/23/7 17/24/7
f 14/25/8 4/3/8 11/2/8 21/26/8
f 19/27/9 22/28/9 10/29/9 1/30/9
f 5/31/10 18/32/10 22/28/10 19/27/10
f 18/33/11 6/20/11 20/19/11 22/34/11
f 29/35/12 31/9/12 18/12/12 5/36/12
f 7/37/13 15/38/13 23/39/13 16/40/13
f 15/8/14 8/7/14 17/24/14 23/41/14
f 13/42/15 24/5/15 15/8/15 7/43/15
f 3/44/16 12/45/16 24/5/16 13/42/16
f 12/45/17 4/46/17 14/6/17 24/5/17
f 9/47/18 25/48/18 12/49/18 3/50/18
f 26/51/19 32/52/19 25/48/19 9/47/19
f 32/53/20 28/54/20 11/2/20 25/1/20
f 10/16/21 2/15/21 28/54/21 32/53/21
f 1/55/22 10/16/22 32/53/22 26/56/22
f 16/40/23 23/39/23 31/9/23 29/35/23
f 21/26/24 11/2/24 28/54/24 30/57/24
f 17/58/25 21/59/25 30/18/25 27/17/25
f 23/39/26 17/60/26 27/10/26 31/9/26
