# Blender v2.80 (sub 44) OBJ File: 'Rocks.blend'
# www.blender.org
mtllib BigRock2.mtl
o BigRock2_Cube.008
v 0.648895 0.850361 -0.733780
v 0.839515 -0.004862 -0.495905
v 0.839515 0.713769 0.893930
v 0.720208 -0.004862 1.077040
v -0.802565 1.008018 -0.733780
v -0.938669 -0.004862 -0.359458
v -1.160485 0.713769 1.011247
v -1.069848 -0.004862 1.111636
v -1.160485 -0.004862 0.161002
v 0.839515 1.086193 -0.084678
v -0.756969 1.318182 -0.084678
v 0.839515 -0.004862 0.161002
v -0.160485 -0.004862 -0.495905
v -0.160485 0.713769 1.011247
v -0.160485 -0.004862 1.161002
v -0.160485 1.008018 -0.733780
v -0.160485 -0.004862 0.161002
v -0.758587 1.552097 -0.919453
v 0.839515 0.837480 -0.646692
v -1.160485 0.471524 1.239576
v 0.824038 0.628287 1.060197
v -0.982033 0.995138 -0.703324
v 0.992857 0.949908 -0.012704
v -1.117552 0.733331 0.200289
v -0.160485 0.995138 -0.646692
v -0.160485 0.471524 1.239576
v -1.160485 -0.004862 0.661002
v 0.839515 0.944935 0.478501
v -0.897950 0.914310 0.537160
v 0.779861 -0.004862 0.619021
v -0.160485 -0.004862 0.661002
v -0.748365 1.706987 -0.215523
v -1.169616 0.602427 0.719932
v 1.053271 0.598398 0.719932
v -0.154132 0.954933 0.951379
v -1.154132 0.954933 0.951379
v 0.845868 1.186100 0.418632
v 0.845868 0.954933 0.834062
v -0.750615 1.559347 -0.144547
v -0.796212 1.249183 -0.793648
v -0.154132 1.395332 -0.808487
v 0.655249 1.395332 -0.808487
v 0.845868 1.504135 -0.126497
v -0.891597 1.155474 0.477291
v -0.156833 1.470794 -0.132919
v -0.155482 1.151301 0.477291
v -0.117495 1.542675 -0.885099
v -0.155734 1.592796 -0.208253
vt 0.657236 0.070579
vt 0.571381 0.061869
vt 0.568029 0.031731
vt 0.653884 0.040440
vt 0.463233 0.527444
vt 0.491817 0.505447
vt 0.571073 0.594834
vt 0.542489 0.616831
vt 0.562965 0.146095
vt 0.653920 0.076058
vt 0.432256 0.739415
vt 0.437293 0.854688
vt 0.382335 0.847369
vt 0.372261 0.739409
vt 0.413512 0.374249
vt 0.464634 0.368955
vt 0.421800 0.406330
vt 0.406192 0.422583
vt 0.372261 0.739614
vt 0.361795 0.739646
vt 0.361832 0.640230
vt 0.372261 0.616831
vt 0.548543 0.276989
vt 0.571073 0.286643
vt 0.515169 0.320461
vt 0.491382 0.314445
vt 0.571073 0.739430
vt 0.571073 0.862014
vt 0.492251 0.862006
vt 0.492251 0.739422
vt 0.509899 0.183736
vt 0.518041 0.136317
vt 0.968959 0.571898
vt 0.956650 0.641905
vt 0.907382 0.650834
vt 0.940762 0.581388
vt 0.972545 0.856815
vt 0.973871 0.980115
vt 0.946796 0.981478
vt 0.945471 0.858178
vt 0.554701 0.644035
vt 0.492251 0.616837
vt 0.365621 0.840333
vt 0.361917 0.818354
vt 0.432256 0.616831
vt 0.378184 0.627936
vt 0.514689 0.106178
vt 0.704075 0.773499
vt 0.777349 0.755107
vt 0.770157 0.877928
vt 0.712352 0.881593
vt 0.902961 0.486339
vt 0.788421 0.503499
vt 0.787650 0.403650
vt 0.904818 0.396726
vt 0.541975 0.250406
vt 0.598189 0.229320
vt 0.945691 0.191203
vt 0.845891 0.211887
vt 0.829032 0.133321
vt 0.944822 0.110906
vt 0.806446 0.283442
vt 0.904818 0.276989
vt 0.945257 0.055453
vt 0.868740 0.042287
vt 0.868738 0.002824
vt 0.945691 0.000000
vt 0.657236 0.204004
vt 0.777349 1.000000
vt 0.717749 0.992256
vt 0.491528 0.268034
vt 0.456979 0.220448
vt 0.993071 0.519079
vt 0.964874 0.528569
vt 0.472507 0.183178
vt 0.854284 0.809229
vt 0.846041 0.908130
vt 0.801406 0.915516
vt 0.791016 0.819186
vt 0.726140 0.396912
vt 0.725970 0.308045
vt 0.787650 0.276989
vt 0.787650 0.397597
vt 0.372261 0.841526
vt 0.372261 0.914643
vt 0.359589 0.913758
vt 0.356480 0.840333
vt 0.571073 0.499237
vt 0.571073 0.401620
vt 0.644251 0.394699
vt 0.643617 0.514895
vt 0.718102 0.517401
vt 0.774408 0.519079
vt 0.639331 0.321341
vt 0.469155 0.153039
vt 0.973871 0.734530
vt 0.946796 0.735893
vt 0.854284 0.984549
vt 0.826678 0.989188
vt 0.993071 0.720410
vt 0.929020 0.734530
vt 0.187948 0.917796
vt 0.189413 0.840429
vt 0.262881 0.838880
vt 0.262881 0.912872
vt 0.890446 0.900101
vt 0.886837 0.817224
vt 0.905520 0.809229
vt 0.905520 0.891730
vt 0.792450 0.992725
vt 0.784773 0.915431
vt 0.569833 0.011857
vt 0.655435 0.000000
vn -0.9979 0.0391 0.0514
vn 0.0000 0.6859 0.7277
vn -0.7571 0.6502 -0.0641
vn 0.0000 -1.0000 0.0000
vn 0.6574 0.6544 0.3737
vn -0.1715 -0.9843 0.0421
vn 0.5041 0.7898 -0.3495
vn -0.7643 0.6239 0.1630
vn 0.9998 -0.0206 -0.0085
vn 0.1132 0.2366 0.9650
vn 0.0078 -0.9792 -0.2026
vn 0.0349 0.7681 0.6393
vn -0.9696 -0.0346 -0.2423
vn 0.1451 -0.0685 0.9870
vn -0.0484 -0.2408 -0.9694
vn -0.9985 0.0285 -0.0473
vn 0.9887 -0.1039 -0.1084
vn -0.0127 -0.1615 -0.9868
vn 0.8947 -0.2957 0.3348
vn -0.9670 -0.0442 -0.2508
vn -0.0252 -0.2141 0.9765
vn 0.9605 -0.2668 -0.0794
vn -0.9905 -0.1063 0.0875
vn 0.9994 -0.0305 -0.0170
vn -0.9226 0.3691 -0.1122
vn 0.6996 0.6781 0.2253
vn -0.0154 -0.1580 -0.9873
vn 0.0022 0.9222 0.3867
vn 0.0672 0.4752 0.8773
vn -0.0178 0.9911 -0.1321
vn 0.0224 0.9011 0.4331
vn -0.0172 0.8754 0.4831
vn 0.0554 0.8583 0.5102
vn -0.8503 -0.1056 -0.5155
vn 0.0000 0.2409 0.9705
vn 0.0126 -0.2096 -0.9777
vn 0.9634 -0.0447 -0.2644
vn 0.1035 0.9842 -0.1440
vn 0.9924 -0.1160 0.0408
vn 0.0583 -0.4173 -0.9069
vn -0.9957 0.0922 0.0094
usemtl Material
s off
f 5/1/1 11/2/1 39/3/1 40/4/1
f 26/5/2 14/6/2 7/7/2 20/8/2
f 24/9/3 11/2/3 5/1/3 22/10/3
f 31/11/4 30/12/4 4/13/4 15/14/4
f 34/15/5 28/16/5 3/17/5 21/18/5
f 25/19/6 16/20/6 1/21/6 19/22/6
f 19/23/7 1/24/7 10/25/7 23/26/7
f 13/27/4 2/28/4 12/29/4 17/30/4
f 33/31/8 29/32/8 11/2/8 24/9/8
f 28/33/9 10/34/9 43/35/9 37/36/9
f 14/37/10 3/38/10 38/39/10 35/40/10
f 6/41/4 13/27/4 17/30/4 9/42/4
f 22/43/11 5/44/11 16/20/11 25/19/11
f 27/45/4 31/11/4 15/14/4 8/46/4
f 21/18/12 3/17/12 14/6/12 26/5/12
f 11/2/13 29/32/13 44/47/13 39/3/13
f 4/48/14 21/49/14 26/50/14 15/51/14
f 6/52/15 22/53/15 25/54/15 13/55/15
f 27/56/16 33/31/16 24/9/16 9/57/16
f 2/58/17 19/59/17 23/60/17 12/61/17
f 13/55/18 25/54/18 19/62/18 2/63/18
f 30/64/19 34/65/19 21/66/19 4/67/19
f 9/57/20 24/9/20 22/10/20 6/68/20
f 15/51/21 26/50/21 20/69/21 8/70/21
f 12/61/22 23/60/22 34/65/22 30/64/22
f 8/71/23 20/72/23 33/31/23 27/56/23
f 3/73/24 28/33/24 37/36/24 38/74/24
f 9/42/4 17/30/4 31/11/4 27/45/4
f 20/72/25 7/75/25 29/32/25 33/31/25
f 23/26/26 10/25/26 28/16/26 34/15/26
f 17/30/4 12/29/4 30/12/4 31/11/4
f 1/76/27 16/77/27 41/78/27 42/79/27
f 46/80/28 44/81/28 36/82/28 35/83/28
f 39/84/29 45/85/29 48/86/29 32/87/29
f 42/88/30 41/89/30 45/90/30 43/91/30
f 37/92/31 46/80/31 35/83/31 38/93/31
f 43/91/32 45/90/32 46/80/32 37/92/32
f 45/90/33 39/94/33 44/81/33 46/80/33
f 29/32/34 7/75/34 36/95/34 44/47/34
f 7/96/35 14/37/35 35/40/35 36/97/35
f 16/77/36 5/98/36 40/99/36 41/78/36
f 10/34/37 1/100/37 42/101/37 43/35/37
f 47/102/38 18/103/38 32/104/38 48/105/38
f 45/106/39 41/107/39 47/108/39 48/109/39
f 41/78/40 40/99/40 18/110/40 47/111/40
f 40/4/41 39/3/41 32/112/41 18/113/41
