# Blender v2.80 (sub 44) OBJ File: 'Rocks.blend'
# www.blender.org
mtllib SmallRock3.mtl
o SmallRock3_Cube.012
v 0.063955 0.000597 0.228542
v -0.028350 0.159295 0.147735
v 0.009168 0.000597 -0.230540
v 0.015673 0.149970 -0.218493
v 0.254572 0.000863 0.186194
v 0.398730 0.142847 0.146372
v 0.216236 -0.018420 -0.098746
v 0.245529 0.112369 -0.108112
v -0.011979 0.000597 -0.032133
v -0.029726 0.064421 0.213122
v -0.051010 0.202714 -0.058806
v -0.040687 0.071492 -0.219687
v 0.103530 0.000597 -0.199179
v 0.095356 0.196510 -0.185264
v 0.266686 0.094302 -0.098701
v 0.264590 -0.012034 -0.036258
v 0.288597 0.193113 -0.021456
v 0.334547 0.053741 0.138065
v 0.213950 0.000597 0.227995
v 0.258130 0.069241 0.309679
v 0.141656 0.228187 -0.013201
v 0.256403 0.038774 0.308575
v 0.282486 0.070283 -0.036414
v 0.103530 0.111525 -0.189277
v -0.042467 0.040186 -0.032133
v 0.040201 0.000597 0.046270
v 0.270509 0.153919 0.042591
v 0.001714 0.177862 0.034339
v 0.274254 -0.007349 0.102407
v 0.122694 0.169235 0.047384
v 0.330968 0.051826 0.104631
v 0.028729 0.014422 0.040257
v 0.142828 0.139179 0.131543
vt 0.446927 0.886663
vt 0.427689 0.883370
vt 0.433333 0.863351
vt 0.443430 0.863684
vt 0.409773 0.878128
vt 0.419385 0.874502
vt 0.415497 0.896374
vt 0.414207 0.899626
vt 0.219218 0.615306
vt 0.230592 0.606202
vt 0.230592 0.624300
vt 0.219895 0.616606
vt 0.032888 0.862277
vt 0.036476 0.862795
vt 0.036476 0.897066
vt 0.026814 0.895869
vt 0.322916 0.879855
vt 0.333624 0.865335
vt 0.340723 0.873895
vt 0.323757 0.899254
vt 0.340867 0.852529
vt 0.354078 0.857660
vt 0.427689 0.882626
vt 0.427689 0.900652
vt 0.313100 0.846714
vt 0.316602 0.838880
vt 0.335354 0.840483
vt 0.325368 0.860830
vt 0.025772 0.865419
vt 0.022070 0.883373
vt 0.054347 0.871751
vt 0.060589 0.862277
vt 0.060589 0.885280
vt 0.051999 0.878482
vt 0.669012 0.275812
vt 0.657236 0.276221
vt 0.665393 0.255885
vt 0.669012 0.255409
vt 0.559086 0.872084
vt 0.551165 0.870676
vt 0.551222 0.866549
vt 0.559296 0.862014
vt 0.559296 0.897300
vt 0.545116 0.895739
vt 0.548336 0.888202
vt 0.558381 0.889118
vt 0.543229 0.896946
vt 0.533844 0.885204
vt 0.396832 0.881520
vt 0.399813 0.897433
vt 0.393531 0.869873
vt 0.400468 0.862014
vt 0.411117 0.866033
vt 0.451251 0.886452
vt 0.451251 0.862014
vt 0.450462 0.895643
vt 0.448971 0.894987
vt 0.429837 0.894375
vt 0.443529 0.916557
vt 0.432286 0.908491
vt 0.570778 0.884057
vt 0.559296 0.884057
vt 0.562801 0.862014
vt 0.564299 0.862519
vt 0.314796 0.875868
vt 0.539439 0.877950
vt 0.350683 0.899254
vn -0.9648 0.1702 -0.2007
vn 0.4936 0.0952 -0.8645
vn 0.6988 -0.2061 -0.6850
vn -0.2919 0.4422 0.8481
vn 0.0234 0.9803 0.1960
vn 0.0976 0.9652 0.2425
vn 0.4203 0.7701 -0.4798
vn -0.1782 0.9509 -0.2529
vn -0.2039 -0.5977 0.7754
vn 0.5368 -0.8081 0.2423
vn 0.7912 -0.4672 0.3945
vn 0.6568 -0.7381 0.1540
vn 0.8331 -0.2922 -0.4696
vn 0.9086 0.1129 -0.4021
vn 0.5590 -0.0894 -0.8243
vn 0.2202 0.1700 -0.9605
vn 0.2929 -0.0559 -0.9545
vn -0.8095 -0.5793 -0.0951
vn -0.7096 -0.5017 0.4948
vn -0.8044 -0.0284 0.5935
vn -0.9466 -0.1696 -0.2741
vn -0.6002 -0.7980 0.0537
vn 0.8674 -0.4544 -0.2027
vn -0.1390 0.8563 0.4974
vn 0.1570 0.7527 0.6394
vn 0.9725 0.2176 -0.0829
vn -0.0355 0.9222 0.3851
vn 0.1383 0.9491 0.2831
usemtl Material
s off
f 25/1/1 11/2/1 4/3/1 12/4/1
f 24/5/2 14/6/2 8/7/2 15/8/2
f 31/9/3 27/10/3 6/11/3 18/12/3
f 22/13/4 20/14/4 2/15/4 10/16/4
f 27/17/5 30/18/5 33/19/5 6/20/5
f 30/18/6 28/21/6 2/22/6 33/19/6
f 8/7/7 14/6/7 21/23/7 17/24/7
f 14/25/8 4/26/8 11/27/8 21/28/8
f 19/29/9 22/13/9 10/16/9 1/30/9
f 5/31/10 18/32/10 22/33/10 19/34/10
f 18/35/11 6/36/11 20/37/11 22/38/11
f 29/39/12 31/40/12 18/41/12 5/42/12
f 7/43/13 15/44/13 23/45/13 16/46/13
f 15/44/14 8/47/14 17/48/14 23/45/14
f 13/49/15 24/5/15 15/8/15 7/50/15
f 3/51/16 12/52/16 24/5/16 13/49/16
f 12/52/17 4/53/17 14/6/17 24/5/17
f 9/54/18 25/1/18 12/4/18 3/55/18
f 26/56/19 32/57/19 25/1/19 9/54/19
f 32/57/20 28/58/20 11/2/20 25/1/20
f 10/59/21 2/60/21 28/58/21 32/57/21
f 1/61/22 10/62/22 32/63/22 26/64/22
f 16/46/23 23/45/23 31/40/23 29/39/23
f 21/28/24 11/27/24 28/21/24 30/18/24
f 17/65/25 21/28/25 30/18/25 27/17/25
f 23/45/26 17/48/26 27/66/26 31/40/26
f 6/20/27 33/19/27 20/67/27
f 33/19/28 2/22/28 20/67/28
