# Blender v2.80 (sub 44) OBJ File: 'Rocks.blend'
# www.blender.org
mtllib SmallRock1.mtl
o SmallRock1_Cube.010
v -0.168110 0.004956 0.209271
v -0.097255 0.222969 0.158317
v -0.125488 0.004956 -0.325942
v -0.096933 0.237407 -0.088374
v 0.320244 0.004956 0.209271
v 0.206118 0.167433 0.104189
v 0.241743 0.004956 -0.328463
v 0.186714 0.199078 0.047314
v -0.174197 0.004956 -0.058336
v -0.155950 0.086324 0.183794
v -0.090564 0.269167 -0.077038
v -0.145286 0.089434 -0.140014
v 0.052638 0.004956 -0.325942
v 0.044890 0.196717 0.016571
v 0.231514 0.089434 -0.134147
v 0.320244 0.004956 -0.058336
v 0.186714 0.200212 0.059335
v 0.263155 0.086324 0.183794
v 0.052638 0.004956 0.259071
v 0.040395 0.198662 0.084802
v 0.043340 0.204271 0.033164
v 0.048764 0.086324 0.183794
v 0.253479 0.105008 -0.040573
v 0.048764 0.089434 -0.140014
v -0.196085 0.105008 -0.040573
v 0.316828 0.004956 -0.070092
v 0.250751 0.103073 -0.052196
v -0.036425 0.004956 -0.325942
v -0.028430 0.200863 0.182704
v -0.026021 0.217062 -0.035901
v -0.057736 0.004956 0.273855
v -0.023612 0.236719 -0.021937
v -0.053593 0.086324 0.191525
v -0.048261 0.089434 -0.140014
vt 0.875146 0.844533
vt 0.854284 0.838990
vt 0.858181 0.837703
vt 0.876579 0.831996
vt 0.515290 0.884049
vt 0.500368 0.880742
vt 0.499668 0.862965
vt 0.515210 0.862014
vt 0.382170 0.893063
vt 0.372261 0.881373
vt 0.375932 0.875746
vt 0.384784 0.865572
vt 0.051824 0.874730
vt 0.038527 0.878066
vt 0.036476 0.869890
vt 0.051999 0.862277
vt 0.295592 0.858425
vt 0.298360 0.875669
vt 0.292292 0.876164
vt 0.289250 0.855607
vt 0.305730 0.884162
vt 0.313100 0.892654
vt 0.284626 0.893657
vt 0.281149 0.885005
vt 0.296904 0.858340
vt 0.299934 0.875235
vt 0.498657 0.890665
vt 0.496946 0.900587
vt 0.493005 0.899623
vt 0.496123 0.890070
vt 0.262881 0.884784
vt 0.275474 0.885619
vt 0.276096 0.897922
vt 0.269907 0.897766
vt 0.271107 0.838880
vt 0.277125 0.847386
vt 0.276599 0.873238
vt 0.264822 0.871400
vt 0.392861 0.894720
vt 0.393531 0.862014
vt 0.393531 0.928480
vt 0.384162 0.904727
vt 0.382418 0.894512
vt 0.392890 0.896189
vt 0.313100 0.849661
vt 0.304436 0.848050
vt 0.515908 0.888747
vt 0.533503 0.885415
vt 0.533844 0.907420
vt 0.515290 0.911566
vt 0.516064 0.878006
vt 0.533673 0.873715
vt 0.515290 0.895667
vt 0.886837 0.842346
vt 0.886837 0.809229
vt 0.886126 0.875036
vt 0.876324 0.871696
vt 0.859325 0.867907
vt 0.303208 0.847821
vt 0.515290 0.907284
vt 0.516221 0.867266
vt 0.533844 0.862014
vt 0.499241 0.880517
vt 0.051999 0.887312
vt 0.041008 0.887301
vn -0.7752 0.4057 -0.4843
vn 0.0541 0.8439 -0.5338
vn 0.8194 0.5729 0.0210
vn -0.1581 0.1852 0.9699
vn 0.0530 0.9309 0.3613
vn 0.2722 0.9446 0.1833
vn 0.0629 0.9559 -0.2868
vn 0.6528 0.2418 -0.7179
vn -0.2687 0.5505 0.7904
vn 0.0860 0.5475 0.8323
vn 0.0187 0.6816 0.7315
vn 0.8258 0.5640 0.0052
vn 0.7675 0.5957 -0.2366
vn 0.6475 0.7124 -0.2706
vn 0.0037 0.9139 -0.4059
vn 0.0000 0.9104 -0.4137
vn 0.2887 0.7011 -0.6521
vn -0.9617 0.0740 -0.2639
vn -0.9946 -0.0494 0.0916
vn -0.8583 0.4958 0.1324
vn 0.7820 0.5697 -0.2527
vn 0.7214 0.6712 -0.1704
vn 0.3171 0.4038 -0.8582
vn 0.0758 0.6936 0.7163
vn 0.6296 0.5713 -0.5265
vn 0.2915 0.9429 0.1614
vn 0.4966 0.3423 0.7976
usemtl Material
s off
f 25/1/1 11/2/1 4/3/1 12/4/1
f 24/5/2 14/6/2 8/7/2 15/8/2
f 23/9/3 17/10/3 6/11/3 18/12/3
f 33/13/4 29/14/4 2/15/4 10/16/4
f 17/17/5 21/18/5 20/19/5 6/20/5
f 32/21/6 11/22/6 2/23/6 29/24/6
f 8/25/7 14/26/7 21/18/7 17/17/7
f 30/27/8 4/28/8 11/29/8 32/30/8
f 31/31/9 33/32/9 10/33/9 1/34/9
f 5/35/10 18/36/10 22/37/10 19/38/10
f 18/36/11 6/20/11 20/19/11 22/37/11
f 16/39/12 23/9/12 18/12/12 5/40/12
f 7/41/13 15/42/13 27/43/13 26/44/13
f 15/45/14 8/25/14 27/46/14
f 13/47/15 24/48/15 15/49/15 7/50/15
f 28/51/16 34/52/16 24/48/16 13/47/16
f 34/53/17 30/27/17 14/6/17 24/5/17
f 9/54/18 25/1/18 12/4/18 3/55/18
f 1/56/19 10/57/19 25/1/19 9/54/19
f 10/57/20 2/58/20 11/2/20 25/1/20
f 26/44/21 27/43/21 23/9/21 16/39/21
f 27/46/22 8/25/22 17/17/22 23/59/22
f 12/60/23 4/28/23 30/27/23 34/53/23
f 3/61/16 12/62/16 34/52/16 28/51/16
f 19/38/24 22/37/24 33/32/24 31/31/24
f 14/6/25 30/27/25 32/30/25 21/63/25
f 21/18/26 32/21/26 29/24/26 20/19/26
f 22/64/27 20/65/27 29/14/27 33/13/27
