# This file uses meters as units for non-parametric coordinates.

mtllib pipe_bracket.mtl
g default
v -100.000015 0.000000 -200.000095
v 0.000011 0.000000 -200.000095
v -100.000000 500.000000 -200.004997
v 0.000000 500.000000 -200.004997
v -100.000015 0.000000 -299.999893
v 0.000011 0.000000 -299.999893
v 0.000000 400.000000 -200.000000
v -100.000000 400.000000 -200.000000
v -100.000000 400.000000 -300.000000
v 0.000000 400.000000 -300.000000
v 0.000000 400.000000 300.000000
v -100.000000 400.000000 300.000000
v 0.000000 500.000000 200.000000
v 0.000000 400.000000 200.000000
v -100.000000 400.000000 200.000000
v -100.000000 500.000000 200.000000
v 0.000015 0.000000 200.000061
v -100.000015 0.000000 200.000061
v 0.000015 0.000000 299.999878
v -100.000015 0.000000 299.999878
v -100.000000 400.010010 -300.000000
v 0.000000 400.010010 -300.000000
v 0.000000 500.000000 200.010010
v 0.000000 400.010010 300.000000
v -100.000000 500.000000 200.010010
v -100.000000 400.010010 300.000000
v -99.999992 300.000000 -299.999992
v -99.999992 300.000000 -199.995018
v -0.000008 300.000000 -199.995018
v -0.000008 300.000000 -299.999992
v -100.000000 300.000000 300.000000
v 0.000000 300.000000 300.000000
v 0.000000 300.000000 200.000000
v -100.000000 300.000000 200.000000
v -100.000000 400.000000 -99.998138
v -100.000000 500.000000 -100.001862
v 0.000000 500.000000 -100.001862
v 0.000000 400.000000 -99.998138
v -100.000000 500.000000 99.999634
v 0.000000 500.000000 99.999634
v 0.000000 400.000000 100.000366
v -100.000000 400.000000 100.000366
v 0.000000 400.000000 -100.000000
v -100.000000 400.000000 -100.000000
v 0.000000 400.000000 100.000000
v -100.000000 400.000000 100.000000
v -100.000000 399.989990 -100.000000
v 0.000000 399.989990 -100.000000
v 0.000000 399.989990 100.000000
v 0.000000 300.000000 199.989990
v -100.000000 399.989990 100.000000
v -100.000000 300.000000 199.989990
v -100.000008 100.000000 -199.998932
v -100.000008 100.000000 -299.999908
v 0.000008 100.000000 -299.999908
v 0.000008 100.000000 -199.998932
v -100.000015 100.000000 299.999939
v 0.000011 100.000000 299.999939
v 0.000011 100.000000 200.000031
v -100.000015 100.000000 200.000031
v -100.000008 100.000000 -199.998932
v -100.000008 100.000000 -299.999908
v 0.000008 100.000000 -299.999908
v 0.000008 100.000000 -199.998932
v -80.000000 300.000000 280.000000
v -20.000000 300.000000 280.000000
v -80.000015 100.000000 279.999939
v -19.999989 100.000000 279.999939
v -20.000000 300.000000 220.000000
v -19.999989 100.000000 220.000031
v -80.000000 300.000000 220.000000
v -80.000015 100.000000 220.000031
v -80.000008 100.000397 -219.998932
v -80.000008 100.000000 -279.999908
v -79.999992 300.000397 -219.995018
v -79.999992 300.000000 -279.999992
v -19.999992 100.000000 -279.999908
v -20.000008 300.000000 -279.999992
v -19.999992 100.000397 -219.998932
v -20.000008 300.000397 -219.995018
v -80.000000 420.000000 -99.998138
v -80.000000 480.000000 -100.001862
v -80.000000 420.000000 100.000366
v -80.000000 480.000000 99.999634
v -20.000000 480.000000 -100.001862
v -20.000000 480.000000 99.999634
v -20.000000 420.000000 -99.998138
v -20.000000 420.000000 100.000366
vt 0.290276 0.385446
vt 0.363090 0.481973
vt 0.363082 0.481977
vt 0.176306 0.000000
vt 0.027375 0.099411
vt 0.345601 0.117098
vt 0.265859 0.221435
vt 0.161194 0.128206
vt 0.161205 0.128199
vt 0.345590 0.117093
vt 0.000000 0.202913
vt 0.159308 0.391455
vt 0.098667 0.225669
vt 0.138301 0.289347
vt 0.454208 0.435782
vt 0.428516 0.202791
vt 0.403984 0.347489
vt 0.369803 0.258170
vt 0.159316 0.391451
vt 0.270243 0.344603
vt 0.270250 0.344598
vt 0.229040 0.278864
vt 0.229033 0.278864
vt 0.138309 0.289348
vt 0.080390 0.248291
vt 0.014501 0.232395
vt 0.134148 0.388123
vt 0.116366 0.303233
vt 0.444902 0.219457
vt 0.400415 0.268640
vt 0.465426 0.404664
vt 0.425812 0.340684
vt 0.519382 0.147349
vt 0.511883 0.178442
vt 0.132812 0.489062
vt 0.116140 0.463125
vt 0.449734 0.048685
vt 0.336808 0.007263
vt 0.246605 0.497422
vt 0.246597 0.497420
vt 0.217609 0.896346
vt 0.134636 0.988785
vt 0.062619 0.556440
vt 0.106425 0.834076
vt 0.108886 0.644366
vt 0.239729 0.602458
vt 0.130415 0.755302
vt 0.263581 0.760934
vt 0.356256 0.823928
vt 0.217621 0.896351
vt 0.163662 0.506925
vt 0.286940 0.493332
vt 0.518146 0.818722
vt 0.351066 0.611260
vt 0.435665 0.750100
vt 0.379035 0.691949
vt 0.198624 0.656270
vt 0.198617 0.656268
vt 0.239482 0.724343
vt 0.239490 0.724340
vt 0.084785 0.821524
vt 0.104324 0.747331
vt 0.050535 0.589539
vt 0.086334 0.654552
vt 0.402276 0.680389
vt 0.453940 0.735722
vt 0.514328 0.782537
vt 0.378501 0.611279
vt 0.391039 0.512370
vt 0.404592 0.539002
vt 0.036996 0.913812
vt 0.034366 0.881680
vt 0.297158 1.000000
vt 0.436438 0.905256
vt 0.163653 0.506929
vt 0.932683 0.686267
vt 0.929487 0.494006
vt 0.715866 0.497553
vt 0.714803 0.433466
vt 0.931619 0.622180
vt 0.717995 0.625727
vt 0.930551 0.558093
vt 0.716930 0.561640
vt 0.928427 0.429919
vt 0.719059 0.689814
vt 0.578331 0.434718
vt 0.642403 0.432940
vt 0.648335 0.646510
vt 0.584259 0.648288
vt 0.514260 0.436497
vt 0.520188 0.650067
vt 0.706474 0.431161
vt 0.456112 0.651846
vt 0.712406 0.644731
vt 0.450188 0.438276
vt 0.518919 0.902521
vt 0.711204 0.903435
vt 0.712219 0.689785
vt 0.776314 0.690089
vt 0.583014 0.902826
vt 0.584029 0.689176
vt 0.647109 0.903130
vt 0.648124 0.689480
vt 0.775299 0.903739
vt 0.519934 0.688871
vt 0.467371 0.325232
vt 0.787847 0.324017
vt 0.787441 0.217192
vt 0.574601 0.431654
vt 0.467775 0.432057
vt 0.681427 0.431249
vt 0.788253 0.430843
vt 0.495476 0.110800
vt 0.491427 0.004049
vt 0.513587 0.024589
vt 0.516016 0.088640
vt 0.602225 0.106750
vt 0.580066 0.086210
vt 0.598176 0.000000
vt 0.577636 0.022160
vt 0.574196 0.324828
vt 0.895078 0.430436
vt 0.894672 0.323611
vt 0.495476 0.110800
vt 0.516016 0.088640
vt 0.681022 0.324423
vt 0.894266 0.216786
vt 0.604833 0.106826
vt 0.604833 0.000000
vt 0.626198 0.021365
vt 0.626198 0.085461
vt 0.711659 0.000000
vt 0.690294 0.021365
vt 0.711659 0.106826
vt 0.690294 0.085461
vt 0.522356 0.116073
vt 0.842758 0.109119
vt 0.735958 0.111437
vt 0.629157 0.113755
vt 0.738276 0.218238
vt 0.631474 0.220556
vt 0.845077 0.215920
vt 0.524674 0.222874
vt 0.951878 0.213602
vt 0.949559 0.106801
vt 0.947241 0.000000
vt 0.840440 0.002318
vn 0.000000 0.000000 1.000000
vn 0.000000 0.000000 1.000000
vn 0.000000 0.000000 1.000000
vn 0.000000 0.000000 1.000000
vn 0.000000 -0.000000 -1.000000
vn 0.000000 -0.000000 -1.000000
vn 0.000000 -0.000000 -1.000000
vn 0.000000 -0.000000 -1.000000
vn 0.000000 -1.000000 0.000000
vn 0.000000 -1.000000 0.000000
vn 0.000000 -1.000000 0.000000
vn 0.000000 -1.000000 0.000000
vn 1.000000 -0.000000 -0.000000
vn 1.000000 -0.000000 0.000000
vn 1.000000 -0.000000 0.000000
vn 1.000000 -0.000000 -0.000000
vn -1.000000 -0.000000 0.000000
vn -1.000000 -0.000000 -0.000000
vn -1.000000 -0.000000 -0.000000
vn -1.000000 -0.000000 0.000000
vn 0.000000 0.000000 1.000000
vn 0.000000 0.000000 1.000000
vn 0.000000 0.000000 1.000000
vn 0.000000 0.000000 1.000000
vn -1.000000 0.000000 0.000000
vn -1.000000 0.000000 0.000000
vn 0.000000 0.000000 -1.000000
vn 0.000000 0.000000 -1.000000
vn 1.000000 0.000000 0.000000
vn 1.000000 0.000000 0.000000
vn 0.000000 -1.000000 0.000000
vn 0.000000 -1.000000 0.000000
vn 0.000000 -1.000000 0.000000
vn 0.000000 -1.000000 0.000000
vn 1.000000 0.000000 0.000000
vn 1.000000 0.000000 0.000000
vn 0.000000 0.894444 -0.447181
vn 0.000000 0.894444 -0.447181
vn 0.000000 1.000000 0.000000
vn 0.000000 1.000000 0.000000
vn -1.000000 0.000000 0.000000
vn -1.000000 0.000000 0.000000
vn 1.000000 -0.000000 0.000000
vn 1.000000 -0.000000 0.000000
vn 1.000000 0.000000 0.000000
vn 1.000000 0.000000 0.000000
vn 1.000000 0.000000 0.000000
vn 0.000000 -1.000000 0.000000
vn 0.000000 -1.000000 0.000000
vn 0.000000 -1.000000 0.000000
vn 0.000000 -1.000000 0.000000
vn -1.000000 -0.000000 0.000000
vn -1.000000 -0.000000 0.000000
vn -1.000000 0.000000 0.000000
vn -1.000000 0.000000 0.000000
vn -1.000000 0.000000 0.000000
vn 0.000000 1.000000 0.000000
vn 0.000000 1.000000 0.000000
vn 0.000000 1.000000 0.000000
vn 0.000000 1.000000 0.000000
vn 0.000000 0.000000 -1.000000
vn 0.000000 0.000000 -1.000000
vn 0.000000 0.000000 -1.000000
vn 0.000000 0.000000 -1.000000
vn 1.000000 0.000000 0.000000
vn 1.000000 0.000000 0.000000
vn 0.000000 0.000000 1.000000
vn 0.000000 0.000000 1.000000
vn -1.000000 0.000000 0.000000
vn -1.000000 0.000000 0.000000
vn 0.000000 0.707124 -0.707089
vn 0.000000 0.707124 -0.707089
vn 0.000000 0.707107 0.707107
vn 0.000000 0.707107 0.707107
vn 0.000000 0.707107 0.707107
vn 0.000000 0.707107 0.707107
vn -1.000000 0.000000 0.000000
vn -1.000000 0.000000 0.000000
vn -1.000000 0.000000 0.000000
vn -1.000000 0.000000 0.000000
vn 0.000000 -0.000012 1.000000
vn 0.000000 -0.000012 1.000000
vn 0.000000 -0.000012 1.000000
vn 0.000000 -0.000012 1.000000
vn 1.000000 0.000000 0.000000
vn 1.000000 0.000000 0.000000
vn 1.000000 0.000000 0.000000
vn 1.000000 0.000000 0.000000
vn 0.000000 -0.000000 -1.000000
vn 0.000000 -0.000000 -1.000000
vn 0.000000 -0.000000 -1.000000
vn 0.000000 -0.000000 -1.000000
vn 0.000000 -0.000000 1.000000
vn 0.000000 -0.000000 1.000000
vn 0.000000 -0.000000 1.000000
vn 0.000000 -0.000000 1.000000
vn 1.000000 0.000000 0.000000
vn 1.000000 0.000000 0.000000
vn 1.000000 0.000000 0.000000
vn 1.000000 0.000000 0.000000
vn 0.000000 -0.000000 -1.000000
vn 0.000000 -0.000000 -1.000000
vn 0.000000 -0.000000 -1.000000
vn 0.000000 -0.000000 -1.000000
vn -1.000000 0.000000 0.000000
vn -1.000000 0.000000 0.000000
vn -1.000000 0.000000 0.000000
vn -1.000000 0.000000 0.000000
vn -1.000000 0.000000 0.000000
vn -1.000000 0.000000 0.000000
vn -1.000000 0.000000 0.000000
vn -1.000000 0.000000 0.000000
vn 0.000000 1.000000 0.000000
vn 0.000000 1.000000 0.000000
vn 0.000000 1.000000 0.000000
vn 0.000000 1.000000 0.000000
vn 1.000000 0.000000 0.000000
vn 1.000000 0.000000 0.000000
vn 1.000000 0.000000 0.000000
vn 1.000000 0.000000 0.000000
vn 0.000000 -1.000000 0.000000
vn 0.000000 -1.000000 0.000000
vn 0.000000 -1.000000 0.000000
vn 0.000000 -1.000000 0.000000
vn 0.000000 1.000000 0.000000
vn 0.000000 1.000000 0.000000
vn 1.000000 -0.000000 0.000000
vn 1.000000 -0.000000 0.000000
vn 0.000000 -1.000000 0.000000
vn 0.000000 -1.000000 0.000000
vn 0.000000 -1.000000 0.000000
vn 0.000000 -1.000000 0.000000
vn -1.000000 -0.000000 0.000000
vn -1.000000 -0.000000 0.000000
vn 1.000000 -0.000000 -0.000000
vn 1.000000 -0.000000 -0.000000
vn 0.000000 1.000000 0.000000
vn 0.000000 1.000000 0.000000
vn 0.000000 1.000000 0.000000
vn 0.000000 1.000000 0.000000
vn -1.000000 -0.000000 -0.000000
vn -1.000000 -0.000000 -0.000000
vn 0.000000 1.000000 0.000000
vn 0.000000 1.000000 0.000000
vn 0.000000 1.000000 0.000000
vn 0.000000 1.000000 0.000000
vn 1.000000 0.000000 0.000000
vn 1.000000 0.000000 0.000000
vn 1.000000 0.000000 0.000000
vn 0.000000 -1.000000 0.000000
vn 0.000000 -1.000000 0.000000
vn 0.000000 -1.000000 0.000000
vn 0.000000 -1.000000 0.000000
vn -1.000000 0.000000 0.000000
vn -1.000000 0.000000 0.000000
vn -1.000000 0.000000 0.000000
vn 0.000000 -0.707125 0.707089
vn 0.000000 -0.707125 0.707089
vn 0.000000 -0.707125 0.707089
vn 0.000000 -0.707125 0.707089
vn 0.000000 -0.707107 -0.707107
vn 0.000000 -0.707107 -0.707107
vn 0.000000 -0.707107 -0.707107
vn 0.000000 -0.707107 -0.707107
vn -1.000000 0.000000 -0.000000
vn -1.000000 0.000000 -0.000000
vn -1.000000 0.000000 -0.000000
vn -1.000000 0.000000 -0.000000
vn 0.000000 -0.000000 -1.000000
vn 0.000000 -0.000000 -1.000000
vn 0.000000 -0.000000 -1.000000
vn 0.000000 -0.000000 -1.000000
vn 1.000000 0.000000 -0.000000
vn 1.000000 0.000000 -0.000000
vn 1.000000 0.000000 -0.000000
vn 1.000000 0.000000 -0.000000
vn 0.000000 -0.000020 1.000000
vn 0.000000 -0.000020 1.000000
vn 0.000000 -0.000020 1.000000
vn 0.000000 -0.000020 1.000000
vn 0.000000 -0.000001 1.000000
vn 0.000000 -0.000001 1.000000
vn 0.000000 -0.000001 1.000000
vn 0.000000 -0.000001 1.000000
vn 1.000000 0.000000 0.000000
vn 1.000000 0.000000 0.000000
vn 1.000000 0.000000 0.000000
vn 1.000000 0.000000 0.000000
vn 0.000000 -0.000000 -1.000000
vn 0.000000 -0.000000 -1.000000
vn 0.000000 -0.000000 -1.000000
vn 0.000000 -0.000000 -1.000000
vn -1.000000 -0.000000 0.000000
vn -1.000000 -0.000000 0.000000
vn -1.000000 -0.000000 0.000000
vn -1.000000 -0.000000 0.000000
vn 0.000000 0.000000 0.000000
vn 0.000000 0.000000 0.000000
vn 0.000000 0.000000 0.000000
vn 0.000000 0.000000 0.000000
vn 0.000000 0.000000 0.000000
vn 0.000000 0.000000 0.000000
vn 0.000000 0.000000 0.000000
vn 0.000000 0.000000 0.000000
vn 0.000000 0.000000 0.000000
vn 0.000000 0.000000 0.000000
vn 0.000000 0.000000 0.000000
vn 0.000000 0.000000 0.000000
vn 0.000000 0.000000 0.000000
vn 0.000000 0.000000 0.000000
vn 0.000000 0.000000 0.000000
vn 0.000000 0.000000 0.000000
vn 0.000000 -1.000000 0.000000
vn 0.000000 -1.000000 0.000000
vn 0.000000 -1.000000 0.000000
vn 0.000000 -1.000000 0.000000
vn 0.000000 1.000000 0.000000
vn 0.000000 1.000000 0.000000
vn 0.000000 1.000000 0.000000
vn 0.000000 1.000000 0.000000
vn 0.000000 -1.000000 0.000000
vn 0.000000 1.000000 -0.000000
vn 0.000000 1.000000 -0.000000
vn 0.000000 -1.000000 0.000000
vn 0.000000 1.000000 -0.000000
vn 0.000000 1.000000 -0.000000
vn -0.000005 1.000000 -0.000001
vn -0.000005 1.000000 0.000009
vn -0.000005 1.000000 0.000009
vn -0.000005 1.000000 -0.000001
vn 0.000005 -1.000000 -0.000009
vn 0.000005 -1.000000 0.000001
vn 0.000005 -1.000000 0.000001
vn 0.000005 -1.000000 -0.000009
vn 0.000005 1.000000 -0.000001
vn 0.000005 1.000000 -0.000001
vn -0.000005 -1.000000 0.000001
vn -0.000005 -1.000000 0.000001
vn 0.000005 1.000000 0.000009
vn 0.000005 1.000000 0.000009
vn -0.000005 -1.000000 -0.000009
vn -0.000005 -1.000000 -0.000009
vn 0.000000 0.000023 1.000000
vn 0.000000 0.000023 1.000000
vn 0.000000 0.000023 1.000000
vn 0.000000 0.000023 1.000000
vn -0.000000 -0.000005 -1.000000
vn -0.000000 -0.000005 -1.000000
vn -0.000000 -0.000005 -1.000000
vn -0.000000 -0.000005 -1.000000
vn 0.000000 0.000023 1.000000
vn 0.000000 0.000023 1.000000
vn -0.000000 -0.000005 -1.000000
vn -0.000000 -0.000005 -1.000000
vn 0.000000 0.000023 1.000000
vn 0.000000 0.000023 1.000000
vn -0.000000 -0.000005 -1.000000
vn -0.000000 -0.000005 -1.000000
s off
g pCube1
usemtl initialShadingGroup
f 47//1 48//2 43//3 44//4
s 1
f 9/41/5 10/42/6 30/71/7 27/44/8
s off
f 5/123/9 6/107/10 2/108/11 1/127/12
s 2
f 29/45/13 30/43/14 10/75/15 7/46/16
s 3
f 27/44/17 28/47/18 8/48/19 9/41/20
s 4
f 12//21 11//22 24//23 26//24
s 3
f 9/41/20 8/48/19 3/49/25 21/50/26
s 1
f 21//27 22//28 10//6 9//5
s 2
f 7/46/16 10/75/15 22/51/29 4/52/30
s off
f 8//31 7//32 38//33 35//34
s 2
f 7/46/16 4/52/30 37/69/35 38/54/36
s 5
f 4/74/37 3/49/38 36/55/39 37/53/40
s 3
f 3/49/25 8/48/19 35/56/41 36/55/42
s 6
f 14/1/43 13/2/44 23/3/45 24/39/46 11/40/47
s off
f 18/145/48 17/137/49 19/147/50 20/146/51
s 7
f 16/6/52 15/7/53 12/8/54 26/9/55 25/10/56
s 8
f 13//57 16//58 25//59 23//60
s off
f 46//61 45//62 49//63 51//64
s 6
f 14/1/43 11/40/47 32/35/65 33/12/66
s 4
f 11/5/22 12/8/21 31/13/67 32/11/68
s 7
f 12/8/54 15/7/53 34/14/69 31/13/70
s 5
f 21/50/71 3/49/38 4/74/37 22/73/72
s off
f 24/4/73 23/38/74 25/10/75 26/9/76
f 5/106/77 1/121/78 53/109/79 54/110/80
f 1/121/81 2/126/82 56/111/83 53/109/84
f 2/126/85 6/107/86 55/112/87 56/111/88
f 54/122/89 55/112/90 6/107/91 5/123/92
f 66/104/93 65/97/94 67/98/95 68/99/96
f 69/100/97 66/96/98 68/105/99 70/101/100
f 71/102/101 69/100/102 70/101/103 72/103/104
f 67/98/105 65/97/106 71/102/107 72/103/108
f 82/84/109 81/77/110 83/78/111 84/79/112
f 85/80/113 82/76/114 84/85/115 86/81/116
f 87/82/117 85/80/118 86/81/119 88/83/120
f 81/77/121 87/82/122 88/83/123 83/78/124
s 8
f 40/33/125 39/16/126 16/6/58 13/37/57
s 6
f 41/17/127 40/15/128 13/2/44 14/1/43
s off
f 42//129 41//130 14//131 15//132
s 7
f 39/16/133 42/18/134 15/7/53 16/6/52
s 2
f 29/45/13 7/46/16 43/57/135 48/58/136
s off
f 7//137 8//138 44//139 43//140
s 3
f 8/48/19 28/47/18 47/59/141 44/60/142
s off
f 15//143 14//144 45//145 46//146
s 6
f 14/1/43 33/12/66 50/19/147 49/20/148 45/21/149
s 9
f 33//150 34//151 52//152 50//153
s 7
f 34/14/69 15/7/53 46/22/154 51/23/155 52/24/156
s off
f 47/59/157 28/47/158 29/45/159 48/58/160
f 49/20/161 50/19/162 52/24/163 51/23/164
f 74/86/165 73/87/166 75/88/167 76/89/168
f 77/90/169 74/86/170 76/89/171 78/91/172
f 79/95/173 77/90/174 78/91/175 80/93/176
f 75/88/177 73/87/178 79/92/179 80/94/180
f 58/140/181 57/141/182 20/139/183 19/138/184
f 59/142/185 58/140/186 19/138/187 17/137/188
f 60/144/189 59/142/190 17/137/191 18/145/192
f 57/141/193 60/143/194 18/136/195 20/139/196
f 54//197 53//198 61//199 62//200
f 55//201 54//202 62//203 63//204
f 56//205 55//206 63//207 64//208
f 53//209 56//210 64//211 61//212
s 9
f 32/11/213 31/13/214 65/25/215 66/26/216
s 11
f 57/128/217 58/129/218 68/130/219 67/131/220
s 9
f 33/12/150 32/35/213 66/36/216 69/27/221
s 11
f 58/129/218 59/132/222 70/133/223 68/130/219
s 9
f 34/14/151 33/12/150 69/27/221 71/28/224
s 11
f 59/132/222 60/134/225 72/135/226 70/133/223
s 9
f 31/13/214 34/14/151 71/28/224 65/25/215
s 11
f 60/134/225 57/128/217 67/131/220 72/135/226
s 12
f 62/113/227 61/114/228 73/115/229 74/116/230
s 13
f 28/47/231 27/44/232 76/61/233 75/62/234
s 12
f 63/117/235 62/124/227 74/125/230 77/118/236
s 13
f 27/44/232 30/71/237 78/72/238 76/61/233
s 12
f 64/119/239 63/117/235 77/118/236 79/120/240
s 13
f 30/43/237 29/45/241 80/64/242 78/63/238
s 12
f 61/114/228 64/119/239 79/120/240 73/115/229
s 13
f 29/45/241 28/47/231 75/62/234 80/64/242
s 14
f 36/55/243 35/56/244 81/65/245 82/66/246
s 15
f 42/18/247 39/16/248 84/29/249 83/30/250
s 14
f 37/53/251 36/55/243 82/66/246 85/67/252
s 15
f 39/16/248 40/33/253 86/34/254 84/29/249
s 14
f 38/54/255 37/69/251 85/70/252 87/68/256
s 15
f 40/15/253 41/17/257 88/32/258 86/31/254
s 14
f 35/56/244 38/54/255 87/68/256 81/65/245
s 15
f 41/17/257 42/18/247 83/30/250 88/32/258
