# This file uses meters as units for non-parametric coordinates.

mtllib solarpanel.mtl
g default
v -299.999878 -9.434385 -305.554549
v 300.000000 -9.434385 -305.554549
v -299.999878 401.010300 123.049567
v 300.000000 401.010300 123.049567
v -299.999878 418.868829 105.554583
v 300.000000 418.868829 105.554583
v -299.999878 9.434428 -323.049568
v 300.000000 9.434428 -323.049568
v -299.999878 348.889042 34.120620
v -299.999878 331.030481 51.615571
v 300.000000 331.030481 51.615571
v 300.000000 348.889042 34.120620
v -299.999878 278.909168 -37.313344
v -299.999878 261.050640 -19.818446
v 300.000000 261.050640 -19.818446
v 300.000000 278.909168 -37.313344
v -200.328979 -9.434385 -305.554549
v -200.328979 261.050640 -19.818446
v -200.328979 331.030481 51.615571
v -200.328979 401.010300 123.049567
v -200.328979 418.868829 105.554583
v -200.328979 348.889042 34.120620
v -200.328979 278.909168 -37.313344
v -200.328979 9.434428 -323.049568
v -100.328979 -9.434385 -305.554549
v -100.328979 261.050640 -19.818446
v -100.328979 331.030481 51.615571
v -100.328979 401.010300 123.049567
v -100.328979 418.868829 105.554583
v -100.328979 348.889042 34.120620
v -100.328979 278.909168 -37.313344
v -100.328979 9.434428 -323.049568
v 199.671021 -9.434385 -305.554549
v 199.671021 261.050640 -19.818446
v 199.671021 331.030481 51.615571
v 199.671021 401.010300 123.049567
v 199.671021 418.868829 105.554583
v 199.671021 348.889042 34.120620
v 199.671021 278.909168 -37.313344
v 199.671021 9.434428 -323.049568
v 99.671021 9.434428 -323.049568
v 99.671021 -9.434385 -305.554549
v 99.671021 261.050640 -19.818446
v 99.671021 331.030481 51.615571
v 99.671021 401.010300 123.049567
v 99.671021 418.868829 105.554583
v 99.671021 348.889042 34.120620
v 99.671021 278.909168 -37.313344
v -179.467407 0.000015 297.749021
v -179.467407 0.000117 339.378714
v -121.190552 0.000015 297.749021
v -121.190552 0.000117 339.378714
v 119.295410 0.000101 296.865458
v 119.295410 0.000018 340.262395
v 180.046631 0.000101 296.865458
v 180.046631 0.000018 340.262395
vt 0.019945 0.521260
vt 0.000438 0.421165
vt 0.020506 0.421262
vt 0.020067 0.501198
vt 0.100775 0.421642
vt 0.100347 0.501600
vt 0.496114 0.502879
vt 0.496322 0.422882
vt 0.516977 0.422936
vt 0.496249 0.523528
vt 0.101818 0.000102
vt 0.101835 0.020161
vt 0.021550 0.020060
vt 0.001483 0.020038
vt 0.100205 0.521666
vt 0.180727 0.502075
vt 0.180405 0.522144
vt 0.182020 0.000106
vt 0.182221 0.020180
vt 0.181026 0.422020
vt 0.497855 0.000664
vt 0.497592 0.021312
vt 0.000768 0.341014
vt 0.020835 0.341086
vt 0.101090 0.341393
vt 0.181322 0.341697
vt 0.496545 0.342628
vt 0.517199 0.342689
vt 0.001253 0.180654
vt 0.021320 0.180704
vt 0.101585 0.180889
vt 0.181825 0.181079
vt 0.497032 0.182102
vt 0.517687 0.182170
vt 0.021480 0.100528
vt 0.001411 0.100500
vt 0.101766 0.100647
vt 0.182033 0.100763
vt 0.497300 0.101838
vt 0.517955 0.101913
vt 0.518247 0.021390
vt 0.516769 0.502931
vt 0.021556 0.000000
vt 0.000000 0.501094
vt 0.000391 0.918752
vt 0.080985 0.918752
vt 0.080767 1.000000
vt 0.000000 1.000000
vt 0.001442 0.837504
vt 0.081452 0.837504
vt 0.002337 0.523466
vt 0.081945 0.523466
vt 0.161883 0.523466
vt 0.161535 0.837504
vt 0.161316 0.918752
vt 0.161318 1.000000
vt 0.321898 0.523466
vt 0.322257 0.837504
vt 0.322457 0.918752
vt 0.322452 1.000000
vt 0.401835 0.523466
vt 0.481967 0.523466
vt 0.482912 0.837504
vt 0.402362 0.837504
vt 0.402841 0.918752
vt 0.483950 0.918752
vt 0.403044 1.000000
vt 0.484235 1.000000
vt 0.916315 0.241281
vt 0.918402 0.306046
vt 0.874701 0.284406
vt 0.997247 0.300170
vt 0.862874 0.632430
vt 0.786329 0.608261
vt 0.714394 0.572640
vt 0.941491 0.648638
vt 0.949486 0.290323
vt 0.868363 0.250152
vt 0.648773 0.526411
vt 0.922652 0.275534
vt 0.596936 0.000000
vt 0.610413 0.030578
vt 0.587288 0.071242
vt 0.554118 0.075292
vt 0.933727 0.103995
vt 0.905534 0.179151
vt 0.865852 0.248927
vt 0.815673 0.311580
vt 0.521145 0.108475
vt 0.554130 0.018866
vt 0.567607 0.049444
vt 0.759094 0.368520
vn 0.000000 -0.714340 0.699799
vn 0.000000 -0.714340 0.699799
vn 0.000000 -0.714340 0.699799
vn 0.000000 -0.714340 0.699799
vn 0.000000 0.699799 0.714340
vn 0.000000 0.699799 0.714340
vn 0.000000 0.699799 0.714340
vn 0.000000 0.699799 0.714340
vn 0.000000 0.714340 -0.699799
vn 0.000000 0.714340 -0.699799
vn 0.000000 0.714340 -0.699799
vn 0.000000 0.714340 -0.699799
vn 0.000000 -0.679908 -0.733298
vn 0.000000 -0.679908 -0.733298
vn 0.000000 -0.679908 -0.733298
vn 0.000000 -0.679908 -0.733298
vn 1.000000 -0.000000 -0.000000
vn 1.000000 -0.000000 -0.000000
vn 1.000000 0.000000 0.000000
vn 1.000000 0.000000 0.000000
vn -1.000000 0.000000 0.000000
vn -1.000000 0.000000 0.000000
vn -1.000000 0.000000 0.000000
vn -1.000000 0.000000 0.000000
vn -1.000000 0.000000 0.000000
vn -1.000000 0.000000 0.000000
vn 0.000000 -0.723831 0.689977
vn 0.000000 -0.724895 0.688859
vn 1.000000 0.000000 0.000000
vn 1.000000 0.000000 0.000000
vn 0.000000 0.724855 -0.688902
vn 0.000000 0.724855 -0.688902
vn -1.000000 0.000000 0.000000
vn -1.000000 0.000000 0.000000
vn 0.000000 -0.726222 0.687460
vn 0.000000 -0.726222 0.687460
vn 1.000000 0.000000 0.000000
vn 1.000000 0.000000 0.000000
vn 0.000000 0.727505 -0.686102
vn 0.000000 0.727505 -0.686102
vn 0.000000 -0.726222 0.687460
vn 0.000000 -0.724514 0.689260
vn 0.000000 -1.000000 0.000002
vn 0.000000 -1.000000 0.000002
vn 0.000000 -1.000000 0.000002
vn 0.000000 -1.000000 0.000002
vn 0.000000 -0.714340 0.699799
vn 0.000000 -0.714340 0.699799
vn 0.000000 0.699799 0.714340
vn 0.000000 0.699799 0.714340
vn 0.000000 0.714340 -0.699799
vn 0.000000 0.714340 -0.699799
vn 0.000000 0.724855 -0.688902
vn 0.000000 0.727505 -0.686102
vn 0.000000 -0.679908 -0.733298
vn 0.000000 -0.679908 -0.733298
vn 0.000000 -0.726222 0.687460
vn 0.000000 -0.724514 0.689260
vn 0.000000 -0.714340 0.699799
vn 0.000000 -0.714340 0.699799
vn 0.000000 0.699799 0.714340
vn 0.000000 0.699799 0.714340
vn 0.000000 0.714340 -0.699799
vn 0.000000 0.714340 -0.699799
vn 0.000000 0.724855 -0.688902
vn 0.000000 0.727505 -0.686102
vn 0.000000 -0.679908 -0.733298
vn 0.000000 -0.679908 -0.733298
vn 0.000000 -0.726222 0.687460
vn 0.000000 -0.726222 0.687460
vn 0.000000 -0.723831 0.689977
vn 0.000000 -0.724891 0.688864
vn 0.000000 -0.714340 0.699799
vn 0.000000 -0.714340 0.699799
vn 0.000000 -0.714340 0.699799
vn 0.000000 -0.714340 0.699799
vn 0.000000 0.699799 0.714340
vn 0.000000 0.699799 0.714340
vn 0.000000 0.699799 0.714340
vn 0.000000 0.699799 0.714340
vn 0.000000 0.714340 -0.699799
vn 0.000000 0.714340 -0.699799
vn 0.000000 0.714340 -0.699799
vn 0.000000 0.714340 -0.699799
vn 0.000000 0.724855 -0.688902
vn 0.000000 0.724855 -0.688902
vn 0.000000 0.727505 -0.686102
vn 0.000000 0.727505 -0.686102
vn 0.000000 -0.679908 -0.733298
vn 0.000000 -0.679908 -0.733298
vn 0.000000 -0.679908 -0.733298
vn 0.000000 -0.679908 -0.733298
vn 0.000000 -1.000000 -0.000002
vn 0.000000 -1.000000 -0.000002
vn 0.000000 -1.000000 -0.000002
vn 0.000000 -1.000000 -0.000002
vn -0.998714 -0.043103 0.026678
vn -0.998714 -0.043103 0.026678
vn -0.998714 -0.043103 0.026678
vn -0.998714 -0.043103 0.026678
vn 0.000000 -0.772498 -0.635018
vn 0.000000 -0.772498 -0.635018
vn 0.000000 -0.772498 -0.635018
vn 0.000000 -0.772498 -0.635018
vn 0.998714 -0.043103 0.026678
vn 0.998714 -0.043103 0.026678
vn 0.998714 -0.043103 0.026678
vn 0.998714 -0.043103 0.026678
vn 0.000000 0.656063 0.754706
vn 0.000000 0.656063 0.754706
vn 0.000000 0.656063 0.754706
vn 0.000000 0.656063 0.754706
vn -0.998858 -0.040796 0.024862
vn -0.998858 -0.040796 0.024862
vn -0.998858 -0.040796 0.024862
vn -0.998858 -0.040796 0.024862
vn 0.000000 -0.771629 -0.636073
vn 0.000000 -0.771629 -0.636073
vn 0.000000 -0.771629 -0.636073
vn 0.000000 -0.771629 -0.636073
vn 0.998858 -0.040796 0.024862
vn 0.998858 -0.040796 0.024862
vn 0.998858 -0.040796 0.024862
vn 0.998858 -0.040796 0.024862
vn 0.000000 0.657208 0.753709
vn 0.000000 0.657208 0.753709
vn 0.000000 0.657208 0.753709
vn 0.000000 0.657208 0.753709
s 1
g pCube7
usemtl initialShadingGroup
f 10/45/1 19/46/2 20/47/3 3/48/4
s 2
f 3/44/5 20/2/6 21/3/7 5/4/8
s 3
f 5/4/9 21/3/10 22/5/11 9/6/12
s 4
f 7/7/13 24/8/14 17/9/15 1/42/16
s 5
f 11/11/17 12/12/18 6/13/19 4/43/20
s 6
f 9/6/21 10/15/22 3/1/23 5/4/24
f 13/16/25 14/17/26 10/15/22 9/6/21
s 1
f 14/49/27 18/50/28 19/46/2 10/45/1
s 5
f 15/18/29 16/19/30 12/12/18 11/11/17
s 3
f 9/6/12 22/5/11 23/20/31 13/16/32
s 6
f 7/7/33 1/10/34 14/17/26 13/16/25
s 1
f 1/51/35 17/52/36 18/50/28 14/49/27
s 5
f 2/21/37 8/22/38 16/19/30 15/18/29
s 3
f 13/16/32 23/20/31 24/8/39 7/7/40
s 1
f 17/52/36 25/53/41 26/54/42 18/50/28
s off
f 50/81/43 49/82/44 51/91/45 52/90/46
s 1
f 20/47/3 19/46/2 27/55/47 28/56/48
s 2
f 21/3/7 20/2/6 28/23/49 29/24/50
s 3
f 22/5/11 21/3/10 29/24/51 30/25/52
f 23/20/31 22/5/11 30/25/52 31/26/53
f 24/8/39 23/20/31 31/26/53 32/27/54
s 4
f 17/9/15 24/8/14 32/27/55 25/28/56
s 1
f 25/53/41 42/57/57 43/58/58 26/54/42
f 27/55/47 26/54/42 43/58/58 44/59/59
f 28/56/48 27/55/47 44/59/59 45/60/60
s 2
f 29/24/50 28/23/49 45/29/61 46/30/62
s 3
f 30/25/52 29/24/51 46/30/63 47/31/64
f 31/26/53 30/25/52 47/31/64 48/32/65
f 32/27/54 31/26/53 48/32/65 41/33/66
s 4
f 25/28/56 32/27/55 41/33/67 42/34/68
s 1
f 33/61/69 2/62/70 15/63/71 34/64/72
f 35/65/73 34/64/72 15/63/71 11/66/74
f 36/67/75 35/65/73 11/66/74 4/68/76
s 2
f 37/35/77 36/36/78 4/14/79 6/13/80
s 3
f 38/37/81 37/35/82 6/13/83 12/12/84
f 39/38/85 38/37/81 12/12/84 16/19/86
f 40/39/87 39/38/85 16/19/86 8/22/88
s 4
f 33/40/89 40/39/90 8/22/91 2/41/92
f 42/34/68 41/33/67 40/39/90 33/40/89
s 1
f 43/58/58 42/57/57 33/61/69 34/64/72
s off
f 54/69/93 53/80/94 55/71/95 56/78/96
s 1
f 45/60/60 44/59/59 35/65/73 36/67/75
s 2
f 46/30/62 45/29/61 36/36/78 37/35/77
s 3
f 47/31/64 46/30/63 37/35/82 38/37/81
f 48/32/65 47/31/64 38/37/81 39/38/85
f 41/33/66 48/32/65 39/38/85 40/39/87
s off
f 19/85/97 18/86/98 49/82/99 50/81/100
f 18/86/101 26/87/102 51/83/103 49/82/104
f 26/87/105 27/88/106 52/84/107 51/83/108
f 27/88/109 19/92/110 50/89/111 52/84/112
f 44/73/113 43/74/114 53/70/115 54/77/116
f 43/74/117 34/75/118 55/71/119 53/70/120
f 34/75/121 35/79/122 56/78/123 55/71/124
f 35/76/125 44/73/126 54/77/127 56/72/128
