# This file uses meters as units for non-parametric coordinates.

mtllib watermill.mtl
g default
v 300.000000 900.000000 0.000000
v 300.000000 900.000000 100.000000
v 300.000000 800.000000 0.000000
v 300.000000 800.000000 100.000000
v -200.000000 900.000000 0.000000
v -200.000000 900.000000 100.000000
v -200.000000 800.000000 0.000000
v -200.000000 800.000000 100.000000
v -100.000000 800.000000 0.000000
v -100.000000 900.000000 0.000000
v -100.000000 900.000000 100.000000
v -100.000000 800.000000 100.000000
v -100.000000 900.000000 900.000000
v -100.000000 800.000000 900.000000
v -200.000000 900.000000 900.000000
v -200.000000 800.000000 900.000000
v -100.000000 900.000000 900.000000
v -100.000000 800.000000 900.000000
v -200.000000 900.000000 900.000000
v -200.000000 800.000000 900.000000
v -100.000000 800.000000 -800.000000
v -100.000000 900.000000 -800.000000
v -200.000000 800.000000 -800.000000
v -200.000000 900.000000 -800.000000
v -100.000000 1700.000000 0.000000
v -100.000000 1700.000000 100.000000
v -200.000000 1700.000000 0.000000
v -200.000000 1700.000000 100.000000
v -100.000000 0.000000 100.000000
v -100.000000 0.000000 0.000000
v -200.000000 0.000000 100.000000
v -200.000000 0.000000 0.000000
v -200.000000 100.000000 0.000000
v -200.000000 100.000000 100.000000
v -100.000000 100.000000 100.000000
v -100.000000 100.000000 0.000000
v -200.000000 800.000000 800.000000
v -200.000000 900.000000 800.000000
v -100.000000 900.000000 800.000000
v -100.000000 800.000000 800.000000
v -200.000000 1600.000000 0.000000
v -100.000000 1600.000000 0.000000
v -100.000000 1600.000000 100.000000
v -200.000000 1600.000000 100.000000
v -200.000000 800.000000 -700.000000
v -100.000000 800.000000 -700.000000
v -100.000000 900.000000 -700.000000
v -200.000000 900.000000 -700.000000
v -300.000000 100.000000 0.000000
v -300.000000 100.000000 100.000000
v -300.000000 0.000000 0.000000
v -300.000000 0.000000 100.000000
v -300.000000 800.000000 800.000000
v -300.000000 900.000000 800.000000
v -300.000000 800.000000 900.000000
v -300.000000 900.000000 900.000000
v -300.000000 1600.000000 100.000000
v -300.000000 1600.000000 0.000000
v -300.000000 1700.000000 100.000000
v -300.000000 1700.000000 0.000000
v -300.000000 900.000000 -700.000000
v -300.000000 800.000000 -700.000000
v -300.000000 900.000000 -800.000000
v -300.000000 800.000000 -800.000000
v 0.000000 100.000000 100.000000
v 0.000000 100.000000 0.000000
v 0.000000 0.000000 100.000000
v 0.000000 0.000000 0.000000
v 0.000000 900.000000 800.000000
v 0.000000 800.000000 800.000000
v 0.000000 900.000000 900.000000
v 0.000000 800.000000 900.000000
v 0.000000 1600.000000 0.000000
v 0.000000 1600.000000 100.000000
v 0.000000 1700.000000 0.000000
v 0.000000 1700.000000 100.000000
v 0.000000 800.000000 -700.000000
v 0.000000 900.000000 -700.000000
v 0.000000 800.000000 -800.000000
v 0.000000 900.000000 -800.000000
vt 0.261146 0.255928
vt 0.293502 0.255928
vt 0.293501 0.288556
vt 0.261146 0.288556
vt 0.032640 0.288556
vt 0.032640 0.255928
vt 0.522008 0.255928
vt 0.522008 0.288556
vt 0.261372 0.029696
vt 0.293275 0.029696
vt 0.293275 0.514786
vt 0.261372 0.514786
vt 0.292540 0.544483
vt 0.262108 0.544483
vt 0.000000 0.288556
vt 0.000000 0.255928
vt 0.262108 0.000000
vt 0.292540 0.000000
vt 0.554647 0.255928
vt 0.554647 0.288556
vt 0.430608 0.103426
vt 0.404752 0.103426
vt 0.404752 0.000000
vt 0.430608 0.000000
vt 0.363381 0.103426
vt 0.363381 0.000000
vt 0.337411 0.103426
vt 0.337411 0.000000
vt 0.296041 0.103426
vt 0.296041 0.000000
vt 0.337411 0.128872
vt 0.296041 0.128872
vt 0.713610 0.633602
vt 0.688056 0.629687
vt 0.553025 0.316081
vt 0.559289 0.275195
vt 0.664312 0.639911
vt 0.640568 0.650135
vt 0.505536 0.336529
vt 0.529281 0.326305
vt 0.799560 0.581676
vt 0.784844 0.602931
vt 0.630522 0.244523
vt 0.481792 0.346752
vt 0.761099 0.613154
vt 0.737355 0.623378
vt 0.583033 0.264971
vt 0.606777 0.254747
vt 0.616823 0.660359
vt 0.664529 0.268070
vt 0.359923 0.801526
vt 0.426798 0.641861
vt 0.066875 0.491109
vt 0.076862 0.467264
vt 0.416811 0.665706
vt 0.395704 0.680633
vt 0.080771 0.548725
vt 0.056888 0.514953
vt 0.385717 0.704478
vt 0.375729 0.728323
vt 0.060797 0.596414
vt 0.070784 0.572569
vt 0.365742 0.752168
vt 0.369910 0.777681
vt 0.009987 0.626929
vt 0.050809 0.620259
vt 0.436785 0.618016
vt 0.000000 0.650774
vt 0.935572 0.979285
vt 0.915116 0.963476
vt 0.948982 0.623718
vt 0.974276 0.590990
vt 0.889392 0.960912
vt 0.863667 0.958348
vt 0.897533 0.618590
vt 0.923258 0.621154
vt 0.837943 0.955784
vt 0.814770 0.967244
vt 0.853473 0.578949
vt 0.871809 0.616026
vt 0.789045 0.964679
vt 0.763321 0.962115
vt 1.000000 0.593554
vt 0.827749 0.576384
vt 0.961296 0.981849
vt 0.802025 0.573820
vt 0.922800 0.026980
vt 0.947303 0.035224
vt 0.822865 0.405071
vt 0.798363 0.396827
vt 0.971805 0.043468
vt 0.799644 0.000000
vt 0.879331 0.387061
vt 0.847368 0.413315
vt 0.824146 0.008244
vt 0.848649 0.016488
vt 0.739766 0.340103
vt 0.715264 0.331860
vt 0.873151 0.024732
vt 0.898298 0.018736
vt 0.773861 0.388583
vt 0.764269 0.348347
vt 0.988213 0.063445
vt 0.690762 0.323616
vt 0.666734 0.000529
vt 0.667016 0.041891
vt 0.641160 0.042065
vt 0.640885 0.000709
vt 0.666735 0.000529
vt 0.667017 0.041891
vt 0.641157 0.042070
vt 0.640882 0.000705
vt 0.589456 0.042413
vt 0.589179 0.001051
vt 0.615030 0.000878
vt 0.615307 0.042240
vt 0.718437 0.000176
vt 0.718719 0.041538
vt 0.692868 0.041715
vt 0.692586 0.000353
vt 0.744288 0.000000
vt 0.744570 0.041362
vt 0.510620 0.042524
vt 0.509999 0.001165
vt 0.535848 0.000777
vt 0.536469 0.042135
vt 0.458922 0.043301
vt 0.458301 0.001942
vt 0.484150 0.001554
vt 0.484771 0.042912
vt 0.587546 0.000000
vt 0.588168 0.041358
vt 0.562318 0.041747
vt 0.561697 0.000388
vt 0.433073 0.043689
vt 0.432452 0.002331
vt 0.525412 0.073975
vt 0.526652 0.048152
vt 0.552474 0.049392
vt 0.551234 0.075215
vt 0.619612 0.052617
vt 0.618371 0.078439
vt 0.577056 0.076455
vt 0.578296 0.050632
vt 0.458274 0.070751
vt 0.459514 0.044928
vt 0.500829 0.046912
vt 0.499589 0.072735
vt 0.432452 0.069511
vt 0.433692 0.043688
vt 0.525562 0.078282
vt 0.525519 0.104134
vt 0.499666 0.104090
vt 0.499710 0.078238
vt 0.592777 0.078395
vt 0.592733 0.104247
vt 0.551370 0.104177
vt 0.551414 0.078325
vt 0.432452 0.103977
vt 0.432495 0.078125
vt 0.473858 0.078195
vt 0.473815 0.104047
vt 0.618629 0.078438
vt 0.618586 0.104290
vt 0.033004 0.000000
vt 0.061689 0.000711
vt 0.056709 0.201502
vt 0.028024 0.200791
vt 0.089713 0.005346
vt 0.084929 0.198263
vt 0.004785 0.003240
vt 0.000000 0.196156
vt 0.160244 0.181376
vt 0.118887 0.182076
vt 0.115821 0.001139
vt 0.157179 0.000438
vt 0.093039 0.182514
vt 0.089973 0.001577
vt 0.186092 0.180938
vt 0.183027 0.000000
vt 0.490027 0.717162
vt 0.464175 0.717168
vt 0.464108 0.427626
vt 0.489960 0.427620
vt 0.438323 0.717174
vt 0.438256 0.427632
vt 0.515879 0.717156
vt 0.515812 0.427614
vt 0.372240 0.288905
vt 0.398089 0.289254
vt 0.394178 0.578770
vt 0.368328 0.578420
vt 0.423939 0.289603
vt 0.420027 0.579119
vt 0.346390 0.288556
vt 0.342478 0.578071
vn -1.000000 0.000000 0.000000
vn -1.000000 0.000000 0.000000
vn -1.000000 0.000000 0.000000
vn -1.000000 0.000000 0.000000
vn 0.000000 1.000000 0.000000
vn 0.000000 1.000000 0.000000
vn 0.000000 1.000000 0.000000
vn 0.000000 1.000000 0.000000
vn 0.000000 0.000000 -1.000000
vn 0.000000 0.000000 -1.000000
vn 0.000000 0.000000 -1.000000
vn 0.000000 0.000000 -1.000000
vn 0.000000 -1.000000 0.000000
vn 0.000000 -1.000000 0.000000
vn 0.000000 -1.000000 0.000000
vn 0.000000 -1.000000 0.000000
vn 0.000000 0.000000 1.000000
vn 0.000000 0.000000 1.000000
vn 0.000000 0.000000 1.000000
vn 0.000000 0.000000 1.000000
vn 0.000000 0.000000 -1.000000
vn 0.000000 0.000000 -1.000000
vn 0.000000 0.000000 -1.000000
vn 0.000000 0.000000 -1.000000
vn 0.000000 1.000000 0.000000
vn 0.000000 1.000000 0.000000
vn 0.000000 1.000000 0.000000
vn 0.000000 1.000000 0.000000
vn 0.000000 0.000000 1.000000
vn 0.000000 0.000000 1.000000
vn 0.000000 0.000000 1.000000
vn 0.000000 0.000000 1.000000
vn 0.000000 -1.000000 0.000000
vn 0.000000 -1.000000 0.000000
vn 0.000000 -1.000000 0.000000
vn 0.000000 -1.000000 0.000000
vn 1.000000 0.000000 0.000000
vn 1.000000 0.000000 0.000000
vn 1.000000 0.000000 0.000000
vn 1.000000 0.000000 0.000000
vn 0.000000 1.000000 0.000000
vn 0.000000 1.000000 0.000000
vn 0.000000 1.000000 0.000000
vn 0.000000 1.000000 0.000000
vn -1.000000 0.000000 0.000000
vn -1.000000 0.000000 0.000000
vn 0.000000 -1.000000 0.000000
vn 0.000000 -1.000000 0.000000
vn 0.000000 -1.000000 0.000000
vn 0.000000 -1.000000 0.000000
vn 0.000000 0.000000 0.000000
vn 0.000000 0.000000 0.000000
vn 0.000000 0.000000 0.000000
vn 0.000000 0.000000 0.000000
vn 0.000000 0.000000 0.000000
vn 0.000000 0.000000 0.000000
vn 0.000000 0.000000 0.000000
vn 0.000000 0.000000 0.000000
vn 0.000000 0.000000 0.000000
vn 0.000000 0.000000 0.000000
vn 0.000000 0.000000 0.000000
vn 0.000000 0.000000 0.000000
vn 0.000000 0.000000 0.000000
vn 0.000000 0.000000 0.000000
vn 0.000000 0.000000 0.000000
vn 0.000000 0.000000 0.000000
vn 1.000000 0.000000 0.000000
vn 1.000000 0.000000 0.000000
vn 1.000000 0.000000 0.000000
vn 1.000000 0.000000 0.000000
vn 0.000000 -1.000000 0.000000
vn 0.000000 -1.000000 0.000000
vn 0.000000 -1.000000 0.000000
vn 0.000000 -1.000000 0.000000
vn -1.000000 0.000000 0.000000
vn -1.000000 0.000000 0.000000
vn 0.000000 1.000000 0.000000
vn 0.000000 1.000000 0.000000
vn 0.000000 1.000000 0.000000
vn 0.000000 1.000000 0.000000
vn 1.000000 0.000000 0.000000
vn 1.000000 0.000000 0.000000
vn 1.000000 0.000000 0.000000
vn 1.000000 0.000000 0.000000
vn 0.000000 0.000000 -1.000000
vn 0.000000 0.000000 -1.000000
vn 0.000000 0.000000 -1.000000
vn 0.000000 0.000000 -1.000000
vn -1.000000 0.000000 0.000000
vn -1.000000 0.000000 0.000000
vn 0.000000 0.000000 1.000000
vn 0.000000 0.000000 1.000000
vn 0.000000 0.000000 1.000000
vn 0.000000 0.000000 1.000000
vn 1.000000 0.000000 0.000000
vn 1.000000 0.000000 0.000000
vn 1.000000 0.000000 0.000000
vn 1.000000 0.000000 0.000000
vn 0.000000 0.000000 1.000000
vn 0.000000 0.000000 1.000000
vn 0.000000 0.000000 1.000000
vn 0.000000 0.000000 1.000000
vn -1.000000 0.000000 0.000000
vn -1.000000 0.000000 0.000000
vn 0.000000 0.000000 -1.000000
vn 0.000000 0.000000 -1.000000
vn 0.000000 0.000000 -1.000000
vn 0.000000 0.000000 -1.000000
vn -1.000000 0.000000 0.000000
vn -1.000000 0.000000 0.000000
vn -1.000000 0.000000 0.000000
vn -1.000000 0.000000 0.000000
vn 1.000000 0.000000 0.000000
vn 1.000000 0.000000 0.000000
vn 1.000000 0.000000 0.000000
vn 1.000000 0.000000 0.000000
vn -1.000000 0.000000 0.000000
vn -1.000000 0.000000 0.000000
vn -1.000000 0.000000 0.000000
vn -1.000000 0.000000 0.000000
vn 1.000000 0.000000 0.000000
vn 1.000000 0.000000 0.000000
vn 1.000000 0.000000 0.000000
vn 1.000000 0.000000 0.000000
vn 1.000000 0.000000 0.000000
vn 1.000000 0.000000 0.000000
vn 1.000000 0.000000 0.000000
vn 1.000000 0.000000 0.000000
vn -1.000000 0.000000 0.000000
vn -1.000000 0.000000 0.000000
vn -1.000000 0.000000 0.000000
vn -1.000000 0.000000 0.000000
vn 1.000000 0.000000 0.000000
vn 1.000000 0.000000 0.000000
vn 1.000000 0.000000 0.000000
vn 1.000000 0.000000 0.000000
vn -1.000000 0.000000 0.000000
vn -1.000000 0.000000 0.000000
vn -1.000000 0.000000 0.000000
vn -1.000000 0.000000 0.000000
vn -1.000000 0.000000 0.000000
vn -1.000000 0.000000 0.000000
vn -1.000000 0.000000 0.000000
vn -1.000000 0.000000 0.000000
vn 0.000000 -0.707107 0.707107
vn 0.000000 -0.707107 0.707107
vn 0.000000 -0.707107 0.707107
vn 0.000000 -0.707107 0.707107
vn 1.000000 0.000000 0.000000
vn 1.000000 0.000000 0.000000
vn 1.000000 0.000000 0.000000
vn 1.000000 0.000000 0.000000
vn 0.000000 0.707107 -0.707107
vn 0.000000 0.707107 -0.707107
vn 0.000000 0.707107 -0.707107
vn 0.000000 0.707107 -0.707107
vn 0.000000 -0.707107 -0.707107
vn 0.000000 -0.707107 -0.707107
vn 0.000000 -0.707107 -0.707107
vn 0.000000 -0.707107 -0.707107
vn 1.000000 0.000000 0.000000
vn 1.000000 0.000000 0.000000
vn 1.000000 0.000000 0.000000
vn 1.000000 0.000000 0.000000
vn 0.000000 0.707107 0.707107
vn 0.000000 0.707107 0.707107
vn 0.000000 0.707107 0.707107
vn 0.000000 0.707107 0.707107
vn -1.000000 0.000000 0.000000
vn -1.000000 0.000000 0.000000
vn -1.000000 0.000000 0.000000
vn -1.000000 0.000000 0.000000
vn -1.000000 0.000000 0.000000
vn -1.000000 0.000000 0.000000
vn -1.000000 0.000000 0.000000
vn -1.000000 0.000000 0.000000
vn 0.000000 0.707107 -0.707107
vn 0.000000 0.707107 -0.707107
vn 0.000000 0.707107 -0.707107
vn 0.000000 0.707107 -0.707107
vn 1.000000 0.000000 0.000000
vn 1.000000 0.000000 0.000000
vn 1.000000 0.000000 0.000000
vn 1.000000 0.000000 0.000000
vn 0.000000 -0.707107 0.707107
vn 0.000000 -0.707107 0.707107
vn 0.000000 -0.707107 0.707107
vn 0.000000 -0.707107 0.707107
vn 0.000000 0.707107 0.707107
vn 0.000000 0.707107 0.707107
vn 0.000000 0.707107 0.707107
vn 0.000000 0.707107 0.707107
vn 1.000000 0.000000 0.000000
vn 1.000000 0.000000 0.000000
vn 1.000000 0.000000 0.000000
vn 1.000000 0.000000 0.000000
vn 0.000000 -0.707107 -0.707107
vn 0.000000 -0.707107 -0.707107
vn 0.000000 -0.707107 -0.707107
vn 0.000000 -0.707107 -0.707107
vn -1.000000 0.000000 0.000000
vn -1.000000 0.000000 0.000000
vn -1.000000 0.000000 0.000000
vn -1.000000 0.000000 0.000000
vn 0.000000 1.000000 0.000000
vn 0.000000 1.000000 0.000000
vn 0.000000 1.000000 0.000000
vn 0.000000 1.000000 0.000000
vn 0.000000 -1.000000 0.000000
vn 0.000000 -1.000000 0.000000
vn 0.000000 0.000000 -1.000000
vn 0.000000 0.000000 -1.000000
vn 0.000000 0.000000 -1.000000
vn 0.000000 0.000000 -1.000000
vn 0.000000 0.000000 1.000000
vn 0.000000 0.000000 1.000000
vn 0.000000 0.000000 1.000000
vn 0.000000 0.000000 1.000000
vn 0.000000 -1.000000 0.000000
vn 0.000000 -1.000000 0.000000
vn 0.000000 -1.000000 0.000000
vn 0.000000 -1.000000 0.000000
vn 0.000000 1.000000 0.000000
vn 0.000000 1.000000 0.000000
vn 0.000000 0.000000 1.000000
vn 0.000000 0.000000 1.000000
vn 0.000000 0.000000 1.000000
vn 0.000000 0.000000 1.000000
vn 0.000000 0.000000 -1.000000
vn 0.000000 0.000000 -1.000000
vn 0.000000 -0.707107 0.707107
vn 0.000000 -0.707107 0.707107
vn 0.000000 0.707107 -0.707107
vn 0.000000 0.707107 -0.707107
vn 0.000000 -0.707107 -0.707107
vn 0.000000 -0.707107 -0.707107
vn 0.000000 0.707107 0.707107
vn 0.000000 0.707107 0.707107
vn 0.000000 0.707107 -0.707107
vn 0.000000 0.707107 -0.707107
vn 0.000000 -0.707107 0.707107
vn 0.000000 -0.707107 0.707107
vn 0.000000 0.707107 0.707107
vn 0.000000 0.707107 0.707107
vn 0.000000 -0.707107 -0.707107
vn 0.000000 -0.707107 -0.707107
vn 0.000000 1.000000 0.000000
vn 0.000000 1.000000 0.000000
vn 0.000000 1.000000 0.000000
vn 0.000000 1.000000 0.000000
vn 0.000000 -1.000000 0.000000
vn 0.000000 -1.000000 0.000000
vn 0.000000 0.000000 -1.000000
vn 0.000000 0.000000 -1.000000
vn 0.000000 0.000000 -1.000000
vn 0.000000 0.000000 -1.000000
vn 0.000000 0.000000 1.000000
vn 0.000000 0.000000 1.000000
vn 0.000000 0.000000 1.000000
vn 0.000000 0.000000 1.000000
vn 0.000000 -1.000000 0.000000
vn 0.000000 -1.000000 0.000000
vn 0.000000 -1.000000 0.000000
vn 0.000000 -1.000000 0.000000
vn 0.000000 1.000000 0.000000
vn 0.000000 1.000000 0.000000
vn 0.000000 0.000000 1.000000
vn 0.000000 0.000000 1.000000
vn 0.000000 0.000000 1.000000
vn 0.000000 0.000000 1.000000
vn 0.000000 0.000000 -1.000000
vn 0.000000 0.000000 -1.000000
vn 0.000000 0.707107 -0.707107
vn 0.000000 0.707107 -0.707107
vn 0.000000 -0.707107 0.707107
vn 0.000000 -0.707107 0.707107
vn 0.000000 0.707107 0.707107
vn 0.000000 0.707107 0.707107
vn 0.000000 -0.707107 -0.707107
vn 0.000000 -0.707107 -0.707107
vn 0.000000 -0.707107 0.707107
vn 0.000000 -0.707107 0.707107
vn 0.000000 0.707107 -0.707107
vn 0.000000 0.707107 -0.707107
vn 0.000000 -0.707107 -0.707107
vn 0.000000 -0.707107 -0.707107
vn 0.000000 0.707107 0.707107
vn 0.000000 0.707107 0.707107
vn 1.000000 0.000000 0.000000
vn 1.000000 0.000000 0.000000
vn 1.000000 0.000000 0.000000
vn 1.000000 0.000000 0.000000
s 1
g polySurface2 pCube4
usemtl initialShadingGroup
f 6/1/1 5/2/2 7/3/3 8/4/4
s off
f 2/21/5 1/22/6 10/23/7 11/24/8
f 1/22/9 3/25/10 9/26/11 10/23/12
f 3/25/13 4/27/14 12/28/15 9/26/16
f 4/27/17 2/29/18 11/30/19 12/28/20
s 2
f 22/123/21 21/124/22 23/125/23 24/126/24
s 3
f 26/151/25 25/152/26 27/153/27 28/154/28
s off
f 18/105/29 17/106/30 19/107/31 20/108/32
s 4
f 30/137/33 29/138/34 31/139/35 32/140/36
s off
f 12/165/37 11/166/38 39/167/39 40/168/40
f 11/166/41 6/169/42 38/170/43 39/167/44
s 1
f 6/1/1 8/4/4 37/5/45 38/6/46
s off
f 8/171/47 12/165/48 40/168/49 37/172/50
f 14/109/51 13/110/52 17/106/53 18/105/54
f 13//55 15//56 19//57 17//58
f 15/111/59 16/112/60 20/108/61 19/107/62
f 16//63 14//64 18//65 20//66
f 10/173/67 9/174/68 46/175/69 47/176/70
f 9/174/71 7/177/72 45/178/73 46/175/74
s 1
f 7/3/3 5/2/2 48/7/75 45/8/76
s off
f 5/179/77 10/173/78 47/176/79 48/180/80
f 11/189/81 10/190/82 42/191/83 43/192/84
f 10/190/85 5/193/86 41/194/87 42/191/88
s 1
f 5/2/2 6/1/1 44/9/89 41/10/90
s off
f 6/195/91 11/189/92 43/192/93 44/196/94
f 9/181/95 12/182/96 35/183/97 36/184/98
f 12/182/99 8/185/100 34/186/101 35/183/102
s 1
f 8/4/4 7/3/3 33/11/103 34/12/104
s off
f 7/187/105 9/181/106 36/184/107 33/188/108
f 50/141/109 49/142/110 51/143/111 52/144/112
f 66/145/113 65/146/114 67/147/115 68/148/116
f 54/113/117 53/114/118 55/115/119 56/116/120
f 70/117/121 69/118/122 71/119/123 72/120/124
f 74/155/125 73/156/126 75/157/127 76/158/128
f 58/159/129 57/160/130 59/161/131 60/162/132
f 78/127/133 77/128/134 79/129/135 80/130/136
f 62/131/137 61/132/138 63/133/139 64/134/140
f 63/33/141 61/34/142 58/35/143 60/36/144
s 5
f 48/37/145 47/38/146 42/39/147 41/40/148
s off
f 78/41/149 80/42/150 75/43/151 73/50/152
s 6
f 22/45/153 24/46/154 27/47/155 25/48/156
s 7
f 23/87/157 21/88/158 30/89/159 32/90/160
s off
f 79/91/161 77/103/162 66/93/163 68/94/164
s 8
f 46/95/165 45/96/166 33/97/167 36/98/168
s off
f 62/99/169 64/100/170 51/101/171 49/102/172
f 55/69/173 53/70/174 50/71/175 52/72/176
s 9
f 37/73/177 40/74/178 35/75/179 34/76/180
s off
f 70/77/181 72/78/182 67/79/183 65/80/184
s 10
f 14/81/185 16/82/186 31/86/187 29/84/188
s 11
f 15/67/189 13/52/190 26/53/191 28/54/192
s off
f 71/55/193 69/56/194 74/57/195 76/58/196
s 12
f 39/59/197 38/60/198 44/61/199 43/62/200
s off
f 54/63/201 56/64/202 59/65/203 57/66/204
f 34/12/205 33/11/206 49/13/207 50/14/208
s 4
f 32/140/36 31/139/35 52/144/209 51/143/210
s off
f 38/6/211 37/5/212 53/15/213 54/16/214
f 16/112/215 15/111/216 56/116/217 55/115/218
f 41/10/219 44/9/220 57/17/221 58/18/222
s 3
f 28/154/28 27/153/27 60/162/223 59/161/224
s off
f 45/8/225 48/7/226 61/19/227 62/20/228
s 2
f 24/126/24 23/125/23 64/134/229 63/133/230
s 5
f 48/37/145 41/40/148 58/35/231 61/34/232
s 6
f 27/47/155 24/46/154 63/33/233 60/36/234
s 7
f 23/87/157 32/90/160 51/101/235 64/100/236
s 8
f 33/97/167 45/96/166 62/99/237 49/102/238
s 9
f 37/73/177 34/76/180 50/71/239 53/70/240
s 10
f 31/83/187 16/85/186 55/69/241 52/72/242
s 11
f 15/51/189 28/68/192 59/65/243 56/64/244
s 12
f 44/61/199 38/60/198 54/63/245 57/66/246
s off
f 36/149/247 35/150/248 65/146/249 66/145/250
s 4
f 29/138/34 30/137/33 68/148/251 67/147/252
s off
f 40/121/253 39/122/254 69/118/255 70/117/256
f 13/110/257 14/109/258 72/120/259 71/119/260
f 43/163/261 42/164/262 73/156/263 74/155/264
s 3
f 25/152/26 26/151/25 76/158/265 75/157/266
s off
f 47/135/267 46/136/268 77/128/269 78/127/270
s 2
f 21/124/22 22/123/21 80/130/271 79/129/272
s 6
f 22/45/153 25/48/156 75/43/273 80/42/274
s 5
f 42/39/147 47/38/146 78/49/275 73/44/276
s 8
f 46/95/165 36/98/168 66/104/277 77/92/278
s 7
f 30/89/159 21/88/158 79/91/279 68/94/280
s 10
f 14/81/185 29/84/188 67/79/281 72/78/282
s 9
f 35/75/179 40/74/178 70/77/283 65/80/284
s 12
f 39/59/197 43/62/200 74/57/285 69/56/286
s 11
f 26/53/191 13/52/190 71/55/287 76/58/288
s off
f 2/29/289 4/27/290 3/31/291 1/32/292
